<mxfile host="65bd71144e">
    <diagram id="PR3Qt93wBFPP_X_f8fZ-" name="Page-1">
        <mxGraphModel dx="3510" dy="2597" grid="1" gridSize="10" guides="1" tooltips="1" connect="1" arrows="1" fold="1" page="1" pageScale="1" pageWidth="1920" pageHeight="1200" math="0" shadow="0">
            <root>
                <mxCell id="0"/>
                <mxCell id="1" parent="0"/>
                <mxCell id="115" value="" style="rounded=0;whiteSpace=wrap;html=1;" vertex="1" parent="1">
                    <mxGeometry x="140" y="509" width="3640" height="1310" as="geometry"/>
                </mxCell>
                <mxCell id="5" style="edgeStyle=orthogonalEdgeStyle;html=1;entryX=0;entryY=0.5;entryDx=0;entryDy=0;fontSize=24;rounded=0;" parent="1" source="2" target="4" edge="1">
                    <mxGeometry relative="1" as="geometry"/>
                </mxCell>
                <mxCell id="7" style="edgeStyle=orthogonalEdgeStyle;rounded=0;html=1;entryX=0;entryY=0.5;entryDx=0;entryDy=0;fontSize=24;" parent="1" source="2" target="6" edge="1">
                    <mxGeometry relative="1" as="geometry"/>
                </mxCell>
                <mxCell id="9" style="edgeStyle=orthogonalEdgeStyle;rounded=0;html=1;entryX=0;entryY=0.5;entryDx=0;entryDy=0;fontSize=24;" parent="1" source="2" target="8" edge="1">
                    <mxGeometry relative="1" as="geometry"/>
                </mxCell>
                <mxCell id="11" style="edgeStyle=orthogonalEdgeStyle;rounded=0;html=1;entryX=0;entryY=0.5;entryDx=0;entryDy=0;fontSize=24;" parent="1" source="2" target="10" edge="1">
                    <mxGeometry relative="1" as="geometry"/>
                </mxCell>
                <mxCell id="2" value="&lt;font style=&quot;font-size: 24px;&quot;&gt;Main menu&lt;/font&gt;" style="rounded=0;whiteSpace=wrap;html=1;" parent="1" vertex="1">
                    <mxGeometry x="273.14" y="940" width="199" height="80" as="geometry"/>
                </mxCell>
                <mxCell id="41" style="edgeStyle=orthogonalEdgeStyle;rounded=0;html=1;entryX=0;entryY=0.5;entryDx=0;entryDy=0;fontFamily=Tahoma;fontSize=24;" parent="1" edge="1">
                    <mxGeometry relative="1" as="geometry">
                        <Array as="points">
                            <mxPoint x="652.14" y="660"/>
                            <mxPoint x="232.14" y="660"/>
                            <mxPoint x="232.14" y="980"/>
                        </Array>
                        <mxPoint x="651.6" y="700" as="sourcePoint"/>
                        <mxPoint x="273.14" y="980" as="targetPoint"/>
                    </mxGeometry>
                </mxCell>
                <mxCell id="4" value="&lt;span style=&quot;font-size: 24px;&quot;&gt;Import&lt;/span&gt;" style="rounded=0;whiteSpace=wrap;html=1;" parent="1" vertex="1">
                    <mxGeometry x="552.14" y="700" width="199" height="80" as="geometry"/>
                </mxCell>
                <mxCell id="114" style="edgeStyle=orthogonalEdgeStyle;rounded=0;html=1;entryX=0.5;entryY=0;entryDx=0;entryDy=0;" edge="1" parent="1" source="6" target="12">
                    <mxGeometry relative="1" as="geometry">
                        <Array as="points">
                            <mxPoint x="972" y="900"/>
                            <mxPoint x="972" y="700"/>
                            <mxPoint x="1353" y="700"/>
                        </Array>
                    </mxGeometry>
                </mxCell>
                <mxCell id="6" value="&lt;span style=&quot;font-size: 24px;&quot;&gt;Filters&lt;br&gt;&lt;/span&gt;" style="rounded=0;whiteSpace=wrap;html=1;fillColor=default;" parent="1" vertex="1">
                    <mxGeometry x="552.14" y="860" width="199" height="80" as="geometry"/>
                </mxCell>
                <mxCell id="111" style="edgeStyle=orthogonalEdgeStyle;html=1;entryX=0.5;entryY=0;entryDx=0;entryDy=0;rounded=0;" edge="1" parent="1" source="8" target="106">
                    <mxGeometry relative="1" as="geometry"/>
                </mxCell>
                <mxCell id="8" value="&lt;span style=&quot;font-size: 24px;&quot;&gt;Save&lt;br&gt;&lt;/span&gt;" style="rounded=0;whiteSpace=wrap;html=1;" parent="1" vertex="1">
                    <mxGeometry x="552.14" y="1020" width="199" height="80" as="geometry"/>
                </mxCell>
                <mxCell id="10" value="&lt;span style=&quot;font-size: 24px;&quot;&gt;Exit&lt;br&gt;&lt;/span&gt;" style="rounded=0;whiteSpace=wrap;html=1;" parent="1" vertex="1">
                    <mxGeometry x="552.14" y="1180" width="199" height="80" as="geometry"/>
                </mxCell>
                <mxCell id="12" value="Filters Menu" style="swimlane;fontStyle=0;childLayout=stackLayout;horizontal=1;startSize=30;horizontalStack=0;resizeParent=1;resizeParentMax=0;resizeLast=0;collapsible=1;marginBottom=0;whiteSpace=wrap;html=1;fontSize=24;strokeWidth=1;spacingTop=0;rotation=0;spacingBottom=0;spacing=0;labelBorderColor=none;swimlaneLine=1;perimeterSpacing=0;swimlaneFillColor=default;fillColor=default;" parent="1" vertex="1">
                    <mxGeometry x="1193" y="754" width="320" height="866" as="geometry">
                        <mxRectangle x="720" y="800" width="170" height="30" as="alternateBounds"/>
                    </mxGeometry>
                </mxCell>
                <mxCell id="13" value="Grey Scale" style="text;strokeColor=default;fillColor=none;align=left;verticalAlign=middle;spacingLeft=4;spacingRight=4;overflow=hidden;points=[[0,0.5],[1,0.5]];portConstraint=eastwest;rotatable=0;whiteSpace=wrap;html=1;fontSize=24;aspect=fixed;swimlaneLine=1;perimeterSpacing=0;swimlaneFillColor=default;fontFamily=Tahoma;" parent="12" vertex="1">
                    <mxGeometry y="30" width="320" height="38" as="geometry"/>
                </mxCell>
                <mxCell id="14" value="Black and White" style="text;strokeColor=default;fillColor=none;align=left;verticalAlign=middle;spacingLeft=4;spacingRight=4;overflow=hidden;points=[[0,0.5],[1,0.5]];portConstraint=eastwest;rotatable=0;whiteSpace=wrap;html=1;fontSize=24;aspect=fixed;swimlaneLine=1;perimeterSpacing=0;swimlaneFillColor=default;fontFamily=Tahoma;" parent="12" vertex="1">
                    <mxGeometry y="68" width="320" height="38" as="geometry"/>
                </mxCell>
                <mxCell id="15" value="Invert Colors" style="text;strokeColor=default;fillColor=none;align=left;verticalAlign=middle;spacingLeft=4;spacingRight=4;overflow=hidden;points=[[0,0.5],[1,0.5]];portConstraint=eastwest;rotatable=0;whiteSpace=wrap;html=1;fontSize=24;aspect=fixed;swimlaneLine=1;perimeterSpacing=0;swimlaneFillColor=default;fontFamily=Tahoma;" parent="12" vertex="1">
                    <mxGeometry y="106" width="320" height="38" as="geometry"/>
                </mxCell>
                <mxCell id="17" value="Merge" style="text;strokeColor=default;fillColor=none;align=left;verticalAlign=middle;spacingLeft=4;spacingRight=4;overflow=hidden;points=[[0,0.5],[1,0.5]];portConstraint=eastwest;rotatable=0;whiteSpace=wrap;html=1;fontSize=24;aspect=fixed;swimlaneLine=1;perimeterSpacing=0;swimlaneFillColor=default;fontFamily=Tahoma;" parent="12" vertex="1">
                    <mxGeometry y="144" width="320" height="38" as="geometry"/>
                </mxCell>
                <mxCell id="16" value="Flip" style="text;strokeColor=default;fillColor=none;align=left;verticalAlign=middle;spacingLeft=4;spacingRight=4;overflow=hidden;points=[[0,0.5],[1,0.5]];portConstraint=eastwest;rotatable=0;whiteSpace=wrap;html=1;fontSize=24;aspect=fixed;swimlaneLine=1;perimeterSpacing=0;swimlaneFillColor=default;fontFamily=Tahoma;" parent="12" vertex="1">
                    <mxGeometry y="182" width="320" height="38" as="geometry"/>
                </mxCell>
                <mxCell id="20" value="Rotate" style="text;strokeColor=default;fillColor=none;align=left;verticalAlign=middle;spacingLeft=4;spacingRight=4;overflow=hidden;points=[[0,0.5],[1,0.5]];portConstraint=eastwest;rotatable=0;whiteSpace=wrap;html=1;fontSize=24;aspect=fixed;swimlaneLine=1;perimeterSpacing=0;swimlaneFillColor=default;fontFamily=Tahoma;" parent="12" vertex="1">
                    <mxGeometry y="220" width="320" height="38" as="geometry"/>
                </mxCell>
                <mxCell id="19" value="Skew" style="text;strokeColor=default;fillColor=none;align=left;verticalAlign=middle;spacingLeft=4;spacingRight=4;overflow=hidden;points=[[0,0.5],[1,0.5]];portConstraint=eastwest;rotatable=0;whiteSpace=wrap;html=1;fontSize=24;aspect=fixed;swimlaneLine=1;perimeterSpacing=0;swimlaneFillColor=default;fontFamily=Tahoma;" parent="12" vertex="1">
                    <mxGeometry y="258" width="320" height="38" as="geometry"/>
                </mxCell>
                <mxCell id="18" value="Edit Brightness" style="text;strokeColor=default;fillColor=none;align=left;verticalAlign=middle;spacingLeft=4;spacingRight=4;overflow=hidden;points=[[0,0.5],[1,0.5]];portConstraint=eastwest;rotatable=0;whiteSpace=wrap;html=1;fontSize=24;aspect=fixed;swimlaneLine=1;perimeterSpacing=0;swimlaneFillColor=default;fontFamily=Tahoma;" parent="12" vertex="1">
                    <mxGeometry y="296" width="320" height="38" as="geometry"/>
                </mxCell>
                <mxCell id="32" value="Resize" style="text;strokeColor=default;fillColor=none;align=left;verticalAlign=middle;spacingLeft=4;spacingRight=4;overflow=hidden;points=[[0,0.5],[1,0.5]];portConstraint=eastwest;rotatable=0;whiteSpace=wrap;html=1;fontSize=24;aspect=fixed;swimlaneLine=1;perimeterSpacing=0;swimlaneFillColor=default;fontFamily=Tahoma;" parent="12" vertex="1">
                    <mxGeometry y="334" width="320" height="38" as="geometry"/>
                </mxCell>
                <mxCell id="31" value="Crop" style="text;strokeColor=default;fillColor=none;align=left;verticalAlign=middle;spacingLeft=4;spacingRight=4;overflow=hidden;points=[[0,0.5],[1,0.5]];portConstraint=eastwest;rotatable=0;whiteSpace=wrap;html=1;fontSize=24;aspect=fixed;swimlaneLine=1;perimeterSpacing=0;swimlaneFillColor=default;fontFamily=Tahoma;" parent="12" vertex="1">
                    <mxGeometry y="372" width="320" height="38" as="geometry"/>
                </mxCell>
                <mxCell id="30" value="Blur" style="text;strokeColor=default;fillColor=none;align=left;verticalAlign=middle;spacingLeft=4;spacingRight=4;overflow=hidden;points=[[0,0.5],[1,0.5]];portConstraint=eastwest;rotatable=0;whiteSpace=wrap;html=1;fontSize=24;aspect=fixed;swimlaneLine=1;perimeterSpacing=0;swimlaneFillColor=default;fontFamily=Tahoma;" parent="12" vertex="1">
                    <mxGeometry y="410" width="320" height="38" as="geometry"/>
                </mxCell>
                <mxCell id="29" value="Pixelate" style="text;strokeColor=default;fillColor=none;align=left;verticalAlign=middle;spacingLeft=4;spacingRight=4;overflow=hidden;points=[[0,0.5],[1,0.5]];portConstraint=eastwest;rotatable=0;whiteSpace=wrap;html=1;fontSize=24;aspect=fixed;swimlaneLine=1;perimeterSpacing=0;swimlaneFillColor=default;fontFamily=Tahoma;" parent="12" vertex="1">
                    <mxGeometry y="448" width="320" height="38" as="geometry"/>
                </mxCell>
                <mxCell id="28" value="Detect image edges" style="text;strokeColor=default;fillColor=none;align=left;verticalAlign=middle;spacingLeft=4;spacingRight=4;overflow=hidden;points=[[0,0.5],[1,0.5]];portConstraint=eastwest;rotatable=0;whiteSpace=wrap;html=1;fontSize=24;aspect=fixed;swimlaneLine=1;perimeterSpacing=0;swimlaneFillColor=default;fontFamily=Tahoma;" parent="12" vertex="1">
                    <mxGeometry y="486" width="320" height="38" as="geometry"/>
                </mxCell>
                <mxCell id="27" value="Frame" style="text;strokeColor=default;fillColor=none;align=left;verticalAlign=middle;spacingLeft=4;spacingRight=4;overflow=hidden;points=[[0,0.5],[1,0.5]];portConstraint=eastwest;rotatable=0;whiteSpace=wrap;html=1;fontSize=24;aspect=fixed;swimlaneLine=1;perimeterSpacing=0;swimlaneFillColor=default;fontFamily=Tahoma;" parent="12" vertex="1">
                    <mxGeometry y="524" width="320" height="38" as="geometry"/>
                </mxCell>
                <mxCell id="26" value="Wanno Day" style="text;strokeColor=default;fillColor=none;align=left;verticalAlign=middle;spacingLeft=4;spacingRight=4;overflow=hidden;points=[[0,0.5],[1,0.5]];portConstraint=eastwest;rotatable=0;whiteSpace=wrap;html=1;fontSize=24;aspect=fixed;swimlaneLine=1;perimeterSpacing=0;swimlaneFillColor=default;fontFamily=Tahoma;" parent="12" vertex="1">
                    <mxGeometry y="562" width="320" height="38" as="geometry"/>
                </mxCell>
                <mxCell id="25" value="Wanno Night" style="text;strokeColor=default;fillColor=none;align=left;verticalAlign=middle;spacingLeft=4;spacingRight=4;overflow=hidden;points=[[0,0.5],[1,0.5]];portConstraint=eastwest;rotatable=0;whiteSpace=wrap;html=1;fontSize=24;aspect=fixed;swimlaneLine=1;perimeterSpacing=0;swimlaneFillColor=default;fontFamily=Tahoma;" parent="12" vertex="1">
                    <mxGeometry y="600" width="320" height="38" as="geometry"/>
                </mxCell>
                <mxCell id="24" value="Wanno TV" style="text;strokeColor=default;fillColor=none;align=left;verticalAlign=middle;spacingLeft=4;spacingRight=4;overflow=hidden;points=[[0,0.5],[1,0.5]];portConstraint=eastwest;rotatable=0;whiteSpace=wrap;html=1;fontSize=24;aspect=fixed;swimlaneLine=1;perimeterSpacing=0;swimlaneFillColor=default;fontFamily=Tahoma;" parent="12" vertex="1">
                    <mxGeometry y="638" width="320" height="38" as="geometry"/>
                </mxCell>
                <mxCell id="23" value="Infera Red" style="text;strokeColor=default;fillColor=none;align=left;verticalAlign=middle;spacingLeft=4;spacingRight=4;overflow=hidden;points=[[0,0.5],[1,0.5]];portConstraint=eastwest;rotatable=0;whiteSpace=wrap;html=1;fontSize=24;aspect=fixed;swimlaneLine=1;perimeterSpacing=0;swimlaneFillColor=default;fontFamily=Tahoma;" parent="12" vertex="1">
                    <mxGeometry y="676" width="320" height="38" as="geometry"/>
                </mxCell>
                <mxCell id="22" value="Oil Painting" style="text;strokeColor=default;fillColor=none;align=left;verticalAlign=middle;spacingLeft=4;spacingRight=4;overflow=hidden;points=[[0,0.5],[1,0.5]];portConstraint=eastwest;rotatable=0;whiteSpace=wrap;html=1;fontSize=24;aspect=fixed;swimlaneLine=1;perimeterSpacing=0;swimlaneFillColor=default;fontFamily=Tahoma;" parent="12" vertex="1">
                    <mxGeometry y="714" width="320" height="38" as="geometry"/>
                </mxCell>
                <mxCell id="21" value="Channel Swap" style="text;strokeColor=default;fillColor=none;align=left;verticalAlign=middle;spacingLeft=4;spacingRight=4;overflow=hidden;points=[[0,0.5],[1,0.5]];portConstraint=eastwest;rotatable=0;whiteSpace=wrap;html=1;fontSize=24;aspect=fixed;swimlaneLine=1;perimeterSpacing=0;swimlaneFillColor=default;fontFamily=Tahoma;" parent="12" vertex="1">
                    <mxGeometry y="752" width="320" height="38" as="geometry"/>
                </mxCell>
                <mxCell id="33" value="Clear All Filters" style="text;strokeColor=default;fillColor=none;align=left;verticalAlign=middle;spacingLeft=4;spacingRight=4;overflow=hidden;points=[[0,0.5],[1,0.5]];portConstraint=eastwest;rotatable=0;whiteSpace=wrap;html=1;fontSize=24;aspect=fixed;swimlaneLine=1;perimeterSpacing=0;swimlaneFillColor=default;fontFamily=Tahoma;" parent="12" vertex="1">
                    <mxGeometry y="790" width="320" height="38" as="geometry"/>
                </mxCell>
                <mxCell id="34" value="Back to Main menu" style="text;strokeColor=default;fillColor=none;align=left;verticalAlign=middle;spacingLeft=4;spacingRight=4;overflow=hidden;points=[[0,0.5],[1,0.5]];portConstraint=eastwest;rotatable=0;whiteSpace=wrap;html=1;fontSize=24;aspect=fixed;swimlaneLine=1;perimeterSpacing=0;swimlaneFillColor=default;fontFamily=Tahoma;" parent="12" vertex="1">
                    <mxGeometry y="828" width="320" height="38" as="geometry"/>
                </mxCell>
                <mxCell id="43" style="edgeStyle=orthogonalEdgeStyle;rounded=0;html=1;entryX=0;entryY=0.5;entryDx=0;entryDy=0;fontFamily=Tahoma;fontSize=24;" parent="1" source="34" target="2" edge="1">
                    <mxGeometry relative="1" as="geometry">
                        <Array as="points">
                            <mxPoint x="232.14" y="1600"/>
                            <mxPoint x="232.14" y="980"/>
                        </Array>
                    </mxGeometry>
                </mxCell>
                <mxCell id="81" style="edgeStyle=orthogonalEdgeStyle;rounded=0;html=1;entryX=0.5;entryY=0;entryDx=0;entryDy=0;fontFamily=Tahoma;fontSize=22;" parent="1" source="45" target="12" edge="1">
                    <mxGeometry relative="1" as="geometry">
                        <Array as="points">
                            <mxPoint x="3173" y="1620"/>
                            <mxPoint x="1553" y="1620"/>
                            <mxPoint x="1553" y="700"/>
                            <mxPoint x="1353" y="700"/>
                        </Array>
                    </mxGeometry>
                </mxCell>
                <mxCell id="45" value="Flip Menu" style="swimlane;fontStyle=0;childLayout=stackLayout;horizontal=1;startSize=30;horizontalStack=0;resizeParent=1;resizeParentMax=0;resizeLast=0;collapsible=1;marginBottom=0;whiteSpace=wrap;html=1;labelBorderColor=none;sketch=0;strokeWidth=1;fontFamily=Tahoma;fontSize=24;swimlaneFillColor=default;" parent="1" vertex="1">
                    <mxGeometry x="3033" y="1386" width="280" height="190" as="geometry"/>
                </mxCell>
                <mxCell id="46" value="Flip Horizontal" style="text;strokeColor=default;fillColor=none;align=left;verticalAlign=middle;spacingLeft=4;spacingRight=4;overflow=hidden;points=[[0,0.5],[1,0.5]];portConstraint=eastwest;rotatable=0;whiteSpace=wrap;html=1;labelBorderColor=none;sketch=0;strokeWidth=1;fontFamily=Tahoma;fontSize=22;" parent="45" vertex="1">
                    <mxGeometry y="30" width="280" height="40" as="geometry"/>
                </mxCell>
                <mxCell id="47" value="Flip Vertical" style="text;strokeColor=default;fillColor=none;align=left;verticalAlign=middle;spacingLeft=4;spacingRight=4;overflow=hidden;points=[[0,0.5],[1,0.5]];portConstraint=eastwest;rotatable=0;whiteSpace=wrap;html=1;labelBorderColor=none;sketch=0;strokeWidth=1;fontFamily=Tahoma;fontSize=22;" parent="45" vertex="1">
                    <mxGeometry y="70" width="280" height="40" as="geometry"/>
                </mxCell>
                <mxCell id="48" value="Flip Both" style="text;strokeColor=default;fillColor=none;align=left;verticalAlign=middle;spacingLeft=4;spacingRight=4;overflow=hidden;points=[[0,0.5],[1,0.5]];portConstraint=eastwest;rotatable=0;whiteSpace=wrap;html=1;labelBorderColor=none;sketch=0;strokeWidth=1;fontFamily=Tahoma;fontSize=22;" parent="45" vertex="1">
                    <mxGeometry y="110" width="280" height="40" as="geometry"/>
                </mxCell>
                <mxCell id="49" value="Return to Filters menu" style="text;strokeColor=default;fillColor=none;align=left;verticalAlign=middle;spacingLeft=4;spacingRight=4;overflow=hidden;points=[[0,0.5],[1,0.5]];portConstraint=eastwest;rotatable=0;whiteSpace=wrap;html=1;labelBorderColor=none;sketch=0;strokeWidth=1;fontFamily=Tahoma;fontSize=22;" parent="45" vertex="1">
                    <mxGeometry y="150" width="280" height="40" as="geometry"/>
                </mxCell>
                <mxCell id="50" style="edgeStyle=orthogonalEdgeStyle;rounded=0;html=1;entryX=0.5;entryY=0;entryDx=0;entryDy=0;fontFamily=Tahoma;fontSize=22;" parent="1" source="16" target="45" edge="1">
                    <mxGeometry relative="1" as="geometry"/>
                </mxCell>
                <mxCell id="80" style="edgeStyle=orthogonalEdgeStyle;rounded=0;html=1;entryX=0.5;entryY=0;entryDx=0;entryDy=0;fontFamily=Tahoma;fontSize=22;" parent="1" source="51" target="12" edge="1">
                    <mxGeometry relative="1" as="geometry">
                        <Array as="points">
                            <mxPoint x="2813" y="1620"/>
                            <mxPoint x="1553" y="1620"/>
                            <mxPoint x="1553" y="700"/>
                            <mxPoint x="1353" y="700"/>
                        </Array>
                    </mxGeometry>
                </mxCell>
                <mxCell id="51" value="Rotate Menu" style="swimlane;fontStyle=0;childLayout=stackLayout;horizontal=1;startSize=30;horizontalStack=0;resizeParent=1;resizeParentMax=0;resizeLast=0;collapsible=1;marginBottom=0;whiteSpace=wrap;html=1;labelBorderColor=none;sketch=0;strokeWidth=1;fontFamily=Tahoma;fontSize=24;swimlaneFillColor=default;" parent="1" vertex="1">
                    <mxGeometry x="2673" y="1386" width="280" height="190" as="geometry"/>
                </mxCell>
                <mxCell id="52" value="Rotate 90" style="text;strokeColor=default;fillColor=none;align=left;verticalAlign=middle;spacingLeft=4;spacingRight=4;overflow=hidden;points=[[0,0.5],[1,0.5]];portConstraint=eastwest;rotatable=0;whiteSpace=wrap;html=1;labelBorderColor=none;sketch=0;strokeWidth=1;fontFamily=Tahoma;fontSize=22;" parent="51" vertex="1">
                    <mxGeometry y="30" width="280" height="40" as="geometry"/>
                </mxCell>
                <mxCell id="53" value="Rotate 180" style="text;strokeColor=default;fillColor=none;align=left;verticalAlign=middle;spacingLeft=4;spacingRight=4;overflow=hidden;points=[[0,0.5],[1,0.5]];portConstraint=eastwest;rotatable=0;whiteSpace=wrap;html=1;labelBorderColor=none;sketch=0;strokeWidth=1;fontFamily=Tahoma;fontSize=22;" parent="51" vertex="1">
                    <mxGeometry y="70" width="280" height="40" as="geometry"/>
                </mxCell>
                <mxCell id="54" value="Rotate 270" style="text;strokeColor=default;fillColor=none;align=left;verticalAlign=middle;spacingLeft=4;spacingRight=4;overflow=hidden;points=[[0,0.5],[1,0.5]];portConstraint=eastwest;rotatable=0;whiteSpace=wrap;html=1;labelBorderColor=none;sketch=0;strokeWidth=1;fontFamily=Tahoma;fontSize=22;" parent="51" vertex="1">
                    <mxGeometry y="110" width="280" height="40" as="geometry"/>
                </mxCell>
                <mxCell id="55" value="Return to Filters menu" style="text;strokeColor=default;fillColor=none;align=left;verticalAlign=middle;spacingLeft=4;spacingRight=4;overflow=hidden;points=[[0,0.5],[1,0.5]];portConstraint=eastwest;rotatable=0;whiteSpace=wrap;html=1;labelBorderColor=none;sketch=0;strokeWidth=1;fontFamily=Tahoma;fontSize=22;" parent="51" vertex="1">
                    <mxGeometry y="150" width="280" height="40" as="geometry"/>
                </mxCell>
                <mxCell id="56" style="edgeStyle=orthogonalEdgeStyle;rounded=0;html=1;fontFamily=Tahoma;fontSize=22;" parent="1" source="20" target="51" edge="1">
                    <mxGeometry relative="1" as="geometry"/>
                </mxCell>
                <mxCell id="78" style="edgeStyle=orthogonalEdgeStyle;rounded=0;html=1;entryX=0.5;entryY=0;entryDx=0;entryDy=0;fontFamily=Tahoma;fontSize=22;" parent="1" source="57" target="12" edge="1">
                    <mxGeometry relative="1" as="geometry">
                        <Array as="points">
                            <mxPoint x="2454" y="1620"/>
                            <mxPoint x="1553" y="1620"/>
                            <mxPoint x="1553" y="700"/>
                            <mxPoint x="1353" y="700"/>
                        </Array>
                    </mxGeometry>
                </mxCell>
                <mxCell id="57" value="Brightness Menu" style="swimlane;fontStyle=0;childLayout=stackLayout;horizontal=1;startSize=30;horizontalStack=0;resizeParent=1;resizeParentMax=0;resizeLast=0;collapsible=1;marginBottom=0;whiteSpace=wrap;html=1;labelBorderColor=none;sketch=0;strokeWidth=1;fontFamily=Tahoma;fontSize=24;swimlaneFillColor=default;" parent="1" vertex="1">
                    <mxGeometry x="2314" y="1386" width="280" height="150" as="geometry"/>
                </mxCell>
                <mxCell id="58" value="Darken" style="text;strokeColor=default;fillColor=none;align=left;verticalAlign=middle;spacingLeft=4;spacingRight=4;overflow=hidden;points=[[0,0.5],[1,0.5]];portConstraint=eastwest;rotatable=0;whiteSpace=wrap;html=1;labelBorderColor=none;sketch=0;strokeWidth=1;fontFamily=Tahoma;fontSize=22;" parent="57" vertex="1">
                    <mxGeometry y="30" width="280" height="40" as="geometry"/>
                </mxCell>
                <mxCell id="59" value="Brighten" style="text;strokeColor=default;fillColor=none;align=left;verticalAlign=middle;spacingLeft=4;spacingRight=4;overflow=hidden;points=[[0,0.5],[1,0.5]];portConstraint=eastwest;rotatable=0;whiteSpace=wrap;html=1;labelBorderColor=none;sketch=0;strokeWidth=1;fontFamily=Tahoma;fontSize=22;" parent="57" vertex="1">
                    <mxGeometry y="70" width="280" height="40" as="geometry"/>
                </mxCell>
                <mxCell id="61" value="Return to Filters menu" style="text;strokeColor=default;fillColor=none;align=left;verticalAlign=middle;spacingLeft=4;spacingRight=4;overflow=hidden;points=[[0,0.5],[1,0.5]];portConstraint=eastwest;rotatable=0;whiteSpace=wrap;html=1;labelBorderColor=none;sketch=0;strokeWidth=1;fontFamily=Tahoma;fontSize=22;" parent="57" vertex="1">
                    <mxGeometry y="110" width="280" height="40" as="geometry"/>
                </mxCell>
                <mxCell id="62" style="edgeStyle=orthogonalEdgeStyle;rounded=0;html=1;entryX=0.5;entryY=0;entryDx=0;entryDy=0;fontFamily=Tahoma;fontSize=22;" parent="1" source="18" target="57" edge="1">
                    <mxGeometry relative="1" as="geometry"/>
                </mxCell>
                <mxCell id="77" style="edgeStyle=orthogonalEdgeStyle;rounded=0;html=1;entryX=0.5;entryY=0;entryDx=0;entryDy=0;fontFamily=Tahoma;fontSize=22;" parent="1" source="63" target="12" edge="1">
                    <mxGeometry relative="1" as="geometry">
                        <Array as="points">
                            <mxPoint x="2094" y="1620"/>
                            <mxPoint x="1553" y="1620"/>
                            <mxPoint x="1553" y="700"/>
                            <mxPoint x="1353" y="700"/>
                        </Array>
                    </mxGeometry>
                </mxCell>
                <mxCell id="63" value="Resize Menu" style="swimlane;fontStyle=0;childLayout=stackLayout;horizontal=1;startSize=30;horizontalStack=0;resizeParent=1;resizeParentMax=0;resizeLast=0;collapsible=1;marginBottom=0;whiteSpace=wrap;html=1;labelBorderColor=none;sketch=0;strokeWidth=1;fontFamily=Tahoma;fontSize=24;swimlaneFillColor=default;" parent="1" vertex="1">
                    <mxGeometry x="1954" y="1386" width="280" height="150" as="geometry"/>
                </mxCell>
                <mxCell id="64" value="Enter New Dimentions" style="text;strokeColor=default;fillColor=none;align=left;verticalAlign=middle;spacingLeft=4;spacingRight=4;overflow=hidden;points=[[0,0.5],[1,0.5]];portConstraint=eastwest;rotatable=0;whiteSpace=wrap;html=1;labelBorderColor=none;sketch=0;strokeWidth=1;fontFamily=Tahoma;fontSize=22;" parent="63" vertex="1">
                    <mxGeometry y="30" width="280" height="40" as="geometry"/>
                </mxCell>
                <mxCell id="65" value="Enter Scale of change" style="text;strokeColor=default;fillColor=none;align=left;verticalAlign=middle;spacingLeft=4;spacingRight=4;overflow=hidden;points=[[0,0.5],[1,0.5]];portConstraint=eastwest;rotatable=0;whiteSpace=wrap;html=1;labelBorderColor=none;sketch=0;strokeWidth=1;fontFamily=Tahoma;fontSize=22;" parent="63" vertex="1">
                    <mxGeometry y="70" width="280" height="40" as="geometry"/>
                </mxCell>
                <mxCell id="67" value="Return to Filters menu" style="text;strokeColor=default;fillColor=none;align=left;verticalAlign=middle;spacingLeft=4;spacingRight=4;overflow=hidden;points=[[0,0.5],[1,0.5]];portConstraint=eastwest;rotatable=0;whiteSpace=wrap;html=1;labelBorderColor=none;sketch=0;strokeWidth=1;fontFamily=Tahoma;fontSize=22;" parent="63" vertex="1">
                    <mxGeometry y="110" width="280" height="40" as="geometry"/>
                </mxCell>
                <mxCell id="68" style="edgeStyle=orthogonalEdgeStyle;rounded=0;html=1;entryX=0.5;entryY=0;entryDx=0;entryDy=0;fontFamily=Tahoma;fontSize=22;" parent="1" source="32" target="63" edge="1">
                    <mxGeometry relative="1" as="geometry"/>
                </mxCell>
                <mxCell id="75" style="edgeStyle=orthogonalEdgeStyle;rounded=0;html=1;entryX=0.5;entryY=0;entryDx=0;entryDy=0;fontFamily=Tahoma;fontSize=22;" parent="1" edge="1">
                    <mxGeometry relative="1" as="geometry">
                        <mxPoint x="1734" y="1536" as="sourcePoint"/>
                        <mxPoint x="1353" y="754" as="targetPoint"/>
                        <Array as="points">
                            <mxPoint x="1734" y="1620"/>
                            <mxPoint x="1553" y="1620"/>
                            <mxPoint x="1553" y="700"/>
                            <mxPoint x="1353" y="700"/>
                        </Array>
                    </mxGeometry>
                </mxCell>
                <mxCell id="69" value="Frame Menu" style="swimlane;fontStyle=0;childLayout=stackLayout;horizontal=1;startSize=30;horizontalStack=0;resizeParent=1;resizeParentMax=0;resizeLast=0;collapsible=1;marginBottom=0;whiteSpace=wrap;html=1;labelBorderColor=none;sketch=0;strokeWidth=1;fontFamily=Tahoma;fontSize=24;swimlaneFillColor=default;gradientColor=none;" parent="1" vertex="1">
                    <mxGeometry x="1594" y="1386" width="280" height="190" as="geometry"/>
                </mxCell>
                <mxCell id="71" value="One color Frame" style="text;strokeColor=default;fillColor=none;align=left;verticalAlign=middle;spacingLeft=4;spacingRight=4;overflow=hidden;points=[[0,0.5],[1,0.5]];portConstraint=eastwest;rotatable=0;whiteSpace=wrap;html=1;labelBorderColor=none;sketch=0;strokeWidth=1;fontFamily=Tahoma;fontSize=22;" parent="69" vertex="1">
                    <mxGeometry y="30" width="280" height="40" as="geometry"/>
                </mxCell>
                <mxCell id="70" value="Two colors Frame" style="text;strokeColor=default;fillColor=none;align=left;verticalAlign=middle;spacingLeft=4;spacingRight=4;overflow=hidden;points=[[0,0.5],[1,0.5]];portConstraint=eastwest;rotatable=0;whiteSpace=wrap;html=1;labelBorderColor=none;sketch=0;strokeWidth=1;fontFamily=Tahoma;fontSize=22;" parent="69" vertex="1">
                    <mxGeometry y="70" width="280" height="40" as="geometry"/>
                </mxCell>
                <mxCell id="104" value="Blur Frame" style="text;strokeColor=default;fillColor=none;align=left;verticalAlign=middle;spacingLeft=4;spacingRight=4;overflow=hidden;points=[[0,0.5],[1,0.5]];portConstraint=eastwest;rotatable=0;whiteSpace=wrap;html=1;labelBorderColor=none;sketch=0;strokeWidth=1;fontFamily=Tahoma;fontSize=22;" vertex="1" parent="69">
                    <mxGeometry y="110" width="280" height="40" as="geometry"/>
                </mxCell>
                <mxCell id="73" value="Return to Filters menu" style="text;strokeColor=default;fillColor=none;align=left;verticalAlign=middle;spacingLeft=4;spacingRight=4;overflow=hidden;points=[[0,0.5],[1,0.5]];portConstraint=eastwest;rotatable=0;whiteSpace=wrap;html=1;labelBorderColor=none;sketch=0;strokeWidth=1;fontFamily=Tahoma;fontSize=22;" parent="69" vertex="1">
                    <mxGeometry y="150" width="280" height="40" as="geometry"/>
                </mxCell>
                <mxCell id="74" style="edgeStyle=orthogonalEdgeStyle;rounded=0;html=1;entryX=0.5;entryY=0;entryDx=0;entryDy=0;fontFamily=Tahoma;fontSize=22;" parent="1" source="27" target="69" edge="1">
                    <mxGeometry relative="1" as="geometry"/>
                </mxCell>
                <mxCell id="99" style="edgeStyle=orthogonalEdgeStyle;rounded=0;html=1;entryX=0.5;entryY=0;entryDx=0;entryDy=0;" parent="1" source="89" target="12" edge="1">
                    <mxGeometry relative="1" as="geometry">
                        <Array as="points">
                            <mxPoint x="3541.86" y="1620"/>
                            <mxPoint x="1551.8600000000001" y="1620"/>
                            <mxPoint x="1551.8600000000001" y="700"/>
                            <mxPoint x="1352.8600000000001" y="700"/>
                        </Array>
                    </mxGeometry>
                </mxCell>
                <mxCell id="89" value="Merge Menu" style="swimlane;fontStyle=0;childLayout=stackLayout;horizontal=1;startSize=30;horizontalStack=0;resizeParent=1;resizeParentMax=0;resizeLast=0;collapsible=1;marginBottom=0;whiteSpace=wrap;html=1;labelBorderColor=none;sketch=0;strokeWidth=1;fontFamily=Tahoma;fontSize=24;swimlaneFillColor=default;" parent="1" vertex="1">
                    <mxGeometry x="3401.86" y="1386" width="280" height="190" as="geometry"/>
                </mxCell>
                <mxCell id="100" value="&lt;font style=&quot;font-size: 18px;&quot;&gt;Resize to the smallest dimension&lt;/font&gt;" style="text;strokeColor=default;fillColor=none;align=left;verticalAlign=middle;spacingLeft=4;spacingRight=4;overflow=hidden;points=[[0,0.5],[1,0.5]];portConstraint=eastwest;rotatable=0;whiteSpace=wrap;html=1;labelBorderColor=none;sketch=0;strokeWidth=1;fontFamily=Tahoma;fontSize=22;" parent="89" vertex="1">
                    <mxGeometry y="30" width="280" height="40" as="geometry"/>
                </mxCell>
                <mxCell id="101" value="&lt;span style=&quot;font-size: 18px;&quot;&gt;Resize to the greatest dimension&lt;/span&gt;" style="text;strokeColor=default;fillColor=none;align=left;verticalAlign=middle;spacingLeft=4;spacingRight=4;overflow=hidden;points=[[0,0.5],[1,0.5]];portConstraint=eastwest;rotatable=0;whiteSpace=wrap;html=1;labelBorderColor=none;sketch=0;strokeWidth=1;fontFamily=Tahoma;fontSize=22;" parent="89" vertex="1">
                    <mxGeometry y="70" width="280" height="40" as="geometry"/>
                </mxCell>
                <mxCell id="92" value="&lt;font style=&quot;font-size: 19px;&quot;&gt;Common area&lt;/font&gt;" style="text;strokeColor=default;fillColor=none;align=left;verticalAlign=middle;spacingLeft=4;spacingRight=4;overflow=hidden;points=[[0,0.5],[1,0.5]];portConstraint=eastwest;rotatable=0;whiteSpace=wrap;html=1;labelBorderColor=none;sketch=0;strokeWidth=1;fontFamily=Tahoma;fontSize=19;" parent="89" vertex="1">
                    <mxGeometry y="110" width="280" height="40" as="geometry"/>
                </mxCell>
                <mxCell id="93" value="&lt;font style=&quot;font-size: 19px;&quot;&gt;Return to Filters menu&lt;/font&gt;" style="text;strokeColor=default;fillColor=none;align=left;verticalAlign=middle;spacingLeft=4;spacingRight=4;overflow=hidden;points=[[0,0.5],[1,0.5]];portConstraint=eastwest;rotatable=0;whiteSpace=wrap;html=1;labelBorderColor=none;sketch=0;strokeWidth=1;fontFamily=Tahoma;fontSize=19;" parent="89" vertex="1">
                    <mxGeometry y="150" width="280" height="40" as="geometry"/>
                </mxCell>
                <mxCell id="94" style="edgeStyle=orthogonalEdgeStyle;html=1;entryX=0.5;entryY=0;entryDx=0;entryDy=0;rounded=0;" parent="1" source="17" target="89" edge="1">
                    <mxGeometry relative="1" as="geometry"/>
                </mxCell>
                <mxCell id="102" style="edgeStyle=orthogonalEdgeStyle;html=1;fontSize=19;rounded=0;" parent="1" source="100" target="64" edge="1">
                    <mxGeometry relative="1" as="geometry">
                        <Array as="points">
                            <mxPoint x="3361.86" y="1436"/>
                            <mxPoint x="3361.86" y="1110"/>
                            <mxPoint x="2281.86" y="1110"/>
                            <mxPoint x="2281.86" y="1436"/>
                        </Array>
                    </mxGeometry>
                </mxCell>
                <mxCell id="103" style="edgeStyle=orthogonalEdgeStyle;rounded=0;html=1;entryX=1;entryY=0.5;entryDx=0;entryDy=0;fontSize=19;" parent="1" source="101" target="64" edge="1">
                    <mxGeometry relative="1" as="geometry">
                        <Array as="points">
                            <mxPoint x="3361.86" y="1476"/>
                            <mxPoint x="3361.86" y="1110"/>
                            <mxPoint x="2281.86" y="1110"/>
                            <mxPoint x="2281.86" y="1436"/>
                        </Array>
                    </mxGeometry>
                </mxCell>
                <mxCell id="113" style="edgeStyle=orthogonalEdgeStyle;rounded=0;html=1;entryX=0;entryY=0.5;entryDx=0;entryDy=0;" edge="1" parent="1">
                    <mxGeometry relative="1" as="geometry">
                        <mxPoint x="973.0088495575221" y="1330" as="sourcePoint"/>
                        <mxPoint x="274.14" y="980" as="targetPoint"/>
                        <Array as="points">
                            <mxPoint x="973" y="1600"/>
                            <mxPoint x="232" y="1600"/>
                            <mxPoint x="232" y="980"/>
                        </Array>
                    </mxGeometry>
                </mxCell>
                <mxCell id="106" value="Save menu" style="swimlane;fontStyle=0;childLayout=stackLayout;horizontal=1;startSize=30;horizontalStack=0;resizeParent=1;resizeParentMax=0;resizeLast=0;collapsible=1;marginBottom=0;whiteSpace=wrap;html=1;labelBorderColor=none;sketch=0;strokeWidth=1;fontFamily=Tahoma;fontSize=24;swimlaneFillColor=default;gradientColor=none;" vertex="1" parent="1">
                    <mxGeometry x="832" y="1180" width="280" height="150" as="geometry"/>
                </mxCell>
                <mxCell id="107" value="Save as a new image" style="text;strokeColor=default;fillColor=none;align=left;verticalAlign=middle;spacingLeft=4;spacingRight=4;overflow=hidden;points=[[0,0.5],[1,0.5]];portConstraint=eastwest;rotatable=0;whiteSpace=wrap;html=1;labelBorderColor=none;sketch=0;strokeWidth=1;fontFamily=Tahoma;fontSize=22;" vertex="1" parent="106">
                    <mxGeometry y="30" width="280" height="40" as="geometry"/>
                </mxCell>
                <mxCell id="108" value="Replace the existing image" style="text;strokeColor=default;fillColor=none;align=left;verticalAlign=middle;spacingLeft=4;spacingRight=4;overflow=hidden;points=[[0,0.5],[1,0.5]];portConstraint=eastwest;rotatable=0;whiteSpace=wrap;html=1;labelBorderColor=none;sketch=0;strokeWidth=1;fontFamily=Tahoma;fontSize=22;" vertex="1" parent="106">
                    <mxGeometry y="70" width="280" height="40" as="geometry"/>
                </mxCell>
                <mxCell id="110" value="Return to Filters menu" style="text;strokeColor=default;fillColor=none;align=left;verticalAlign=middle;spacingLeft=4;spacingRight=4;overflow=hidden;points=[[0,0.5],[1,0.5]];portConstraint=eastwest;rotatable=0;whiteSpace=wrap;html=1;labelBorderColor=none;sketch=0;strokeWidth=1;fontFamily=Tahoma;fontSize=22;" vertex="1" parent="106">
                    <mxGeometry y="110" width="280" height="40" as="geometry"/>
                </mxCell>
            </root>
        </mxGraphModel>
    </diagram>
</mxfile>